<svg width="490" height="126" viewBox="0 0 490 126" fill="none" xmlns="http://www.w3.org/2000/svg">
<path d="M120.478 63.956C116.989 71.4557 111.633 77.1895 104.112 80.9635C98.9106 83.5737 93.3231 84.9753 87.5276 85.6503C85.8722 85.8431 84.2034 85.93 82.2971 86.0853C85.5416 73.0804 92.2633 62.5663 103.444 54.7609C97.5664 56.3479 92.6583 59.4493 88.2842 63.4164C83.8842 67.4069 80.7696 72.2243 78.4074 77.6148C78.3544 77.3535 78.2582 77.0928 78.2546 76.8308C78.1446 68.8827 79.6576 61.3472 84.3674 54.6295C87.7266 49.838 92.2872 46.422 97.6435 43.9422C103.239 41.3516 109.202 40.0653 115.348 39.5298C118.103 39.2897 120.875 39.234 123.638 39.0746C124.281 39.0375 124.592 39.2094 124.627 39.891C125.052 48.1755 123.976 56.2172 120.478 63.956Z" fill="white"/>
<path d="M180.246 46.3999C182.7 50.1223 183.615 54.2501 183.957 58.5289C184.406 64.1443 184.167 69.7136 182.117 75.0407C179.499 81.8414 173.708 85.8578 166.44 86.0564C163.413 86.1392 160.399 86.1099 157.502 85.0481C152.609 83.2545 149.18 79.8616 147.46 75.0021C144.538 66.747 144.484 58.3492 147.446 50.1065C149.945 43.1515 156.03 39.1747 163.419 39.0765C166.822 39.0313 170.178 39.18 173.342 40.6067C176.156 41.8755 178.506 43.7141 180.246 46.3999ZM166.675 76.9608C169.311 76.4321 170.867 74.6928 171.69 72.267C173.541 66.8063 173.38 61.2188 172.509 55.6198C172.334 54.4958 171.971 53.3743 171.523 52.3252C170.337 49.5463 168.114 48.257 165.155 48.1906C162.087 48.1217 159.597 49.1421 158.164 52.0615C157.148 54.132 156.731 56.359 156.583 58.6292C156.288 63.1691 156.202 67.7113 157.749 72.0838C159.175 76.1155 162.278 77.8139 166.675 76.9608Z" fill="white"/>
<path d="M285.878 76.7451C287.562 76.7572 289.149 76.7572 290.812 76.7572C290.812 74.1362 290.812 71.6403 290.812 69.0265C288.605 69.0265 286.443 69.0265 284.098 69.0265C285.503 66.313 286.813 63.7623 288.156 61.2291C288.264 61.0258 288.603 60.8227 288.835 60.8225C292.793 60.8192 296.75 60.8478 300.708 60.8722C300.737 60.8724 300.767 60.9112 300.853 60.9715C300.853 68.5924 300.853 76.2531 300.853 84.1963C298.506 84.6784 296.125 85.3144 293.702 85.6327C289.517 86.1823 285.307 86.3708 281.14 85.3888C274.054 83.7192 269.114 79.5861 266.844 72.6761C264.567 65.7449 264.594 58.7189 267.248 51.9101C270.376 43.8847 276.581 39.7614 285.165 39.152C289.933 38.8135 294.565 39.5113 299.127 41.4217C298.329 42.8845 297.56 44.2966 296.788 45.7069C296.251 46.6877 295.682 47.6529 295.18 48.6506C294.902 49.2025 294.633 49.2889 293.996 49.1235C290.248 48.1502 286.484 47.8006 282.784 49.3422C280.176 50.4286 278.476 52.4246 277.61 55.0191C275.916 60.09 275.902 65.2455 277.543 70.315C278.799 74.1986 281.76 76.2027 285.878 76.7451Z" fill="white"/>
<path d="M423.371 85.9212C419.926 85.9654 416.56 86.2384 413.237 85.966C407.814 85.5213 403.825 82.6998 401.853 77.5245C399.815 72.1795 399.764 66.6741 401.578 61.2569C403.43 55.7289 407.486 52.8664 413.174 52.122C415.686 51.7934 418.106 52.0987 420.674 52.8242C420.674 51.2791 420.674 49.8118 420.674 48.2274C418.951 48.2274 417.112 48.2274 415.079 48.2274C416.535 45.5255 417.891 42.9897 419.277 40.4704C419.373 40.297 419.689 40.1546 419.904 40.1532C423.033 40.133 426.163 40.1394 429.422 40.1394C429.422 40.6334 429.422 41.024 429.422 41.4147C429.422 55.525 429.411 69.6353 429.445 83.7455C429.447 84.7177 429.189 85.0878 428.218 85.1864C426.627 85.3478 425.051 85.6577 423.371 85.9212ZM420.716 73.1399C420.716 68.97 420.716 64.8001 420.716 60.5625C419.768 60.4019 418.92 60.1989 418.06 60.1227C413.691 59.7349 410.613 61.9969 410.018 66.3281C409.748 68.2874 409.853 70.3615 410.166 72.3226C410.556 74.7672 412.034 76.6284 414.546 77.1134C416.309 77.4539 418.165 77.3422 419.979 77.3438C420.224 77.344 420.658 76.842 420.682 76.5458C420.768 75.49 420.716 74.4227 420.716 73.1399Z" fill="white"/>
<path d="M369.455 59.9713C369.649 61.8202 369.953 63.5779 369.971 65.3388C370.034 71.2079 369.981 77.0783 370.011 82.9479C370.015 83.7404 369.821 84.0641 369.003 84.2856C364.027 85.6329 359.001 86.4056 353.838 85.9578C351.114 85.7215 348.538 85.0432 346.172 83.5776C340.923 80.3277 339.728 69.2504 347.202 65.3837C350.583 63.6347 354.213 63.1928 357.949 63.3333C358.57 63.3566 359.19 63.3844 359.811 63.4035C359.878 63.4055 359.947 63.3633 360.014 63.3404C360.163 61.6765 359.504 60.5749 357.998 60.0135C355.619 59.1266 353.191 59.2349 350.759 59.7151C349.267 60.0099 347.787 60.3721 346.198 60.7272C345.499 58.1522 344.817 55.6371 344.077 52.912C345.911 52.4274 347.642 51.8862 349.408 51.5205C353.383 50.6975 357.38 50.4648 361.343 51.5922C365.583 52.7982 368.411 55.4523 369.455 59.9713ZM353.116 77.0687C355.388 78.1203 357.724 77.8662 360.107 77.4982C360.107 75.1482 360.107 72.8798 360.107 70.5452C358.015 70.2553 356.006 70.246 354.006 70.8496C352.667 71.2537 351.716 71.9982 351.5 73.4522C351.282 74.9163 351.654 76.1604 353.116 77.0687Z" fill="white"/>
<path d="M326.623 56.5463C326.623 54.9452 326.623 53.4538 326.623 51.8946C329.947 51.8946 333.176 51.8946 336.493 51.8946C336.493 52.3163 336.493 52.677 336.493 53.0378C336.493 62.9785 336.482 72.9193 336.513 82.86C336.515 83.6882 336.306 84.0499 335.48 84.302C329.842 86.0235 324.12 86.538 318.285 85.673C312.306 84.7868 308.747 81.2518 307.789 75.1485C307.523 73.4585 307.382 71.7332 307.367 70.0224C307.315 64.285 307.345 58.5469 307.347 52.809C307.347 52.5247 307.379 52.2404 307.4 51.8922C310.644 51.8922 313.842 51.8922 317.212 51.8922C317.212 52.2861 317.212 52.6677 317.212 53.0493C317.212 58.3852 317.202 63.7211 317.222 69.0569C317.226 70.1505 317.281 71.2517 317.42 72.3357C317.825 75.5026 319.269 76.9404 322.434 77.224C323.835 77.3495 325.256 77.2452 326.623 77.2452C326.623 70.2431 326.623 63.4495 326.623 56.5463Z" fill="white"/>
<path d="M229.734 60.9821C228.582 57.9504 227.461 54.9959 226.292 51.9136C230.011 51.9136 233.583 51.8895 237.153 51.9573C237.453 51.963 237.889 52.5426 238.01 52.9286C239.914 59.0034 241.776 65.0903 243.649 71.1738C243.792 71.6359 243.951 72.0931 244.102 72.5526C244.2 72.5597 244.298 72.5667 244.396 72.5738C244.521 72.241 244.665 71.9137 244.768 71.5748C246.659 65.3485 248.56 59.1248 250.413 52.8879C250.634 52.1454 250.933 51.8806 251.757 51.8926C255.115 51.9413 258.473 51.9129 261.951 51.9129C261.829 52.2891 261.75 52.5846 261.639 52.8691C257.598 63.2607 253.546 73.6486 249.526 84.0476C249.253 84.7535 248.917 85.0303 248.106 85.0148C245.374 84.9623 242.64 84.9596 239.908 85.0161C239.078 85.0332 238.772 84.7175 238.51 84.0245C235.614 76.3629 232.686 68.7126 229.734 60.9821Z" fill="white"/>
<path d="M60.1506 53.4385C68.2237 56.8019 72.2269 62.8541 72.7989 71.1206C72.9562 73.3944 72.6783 75.6987 72.5564 77.9868C72.5264 78.5484 72.3248 79.1014 72.207 79.6367C54.3065 80.4305 43.1887 68.532 44.9288 50.8237C50.1101 50.9433 55.2204 51.413 60.1506 53.4385Z" fill="white"/>
<path d="M192.342 79.2974C192.123 77.5992 191.754 75.9873 191.747 74.3737C191.695 62.8044 191.717 51.2349 191.716 39.6654C191.716 39.489 191.732 39.3127 191.744 39.0698C194.857 39.0698 197.937 39.0698 201.174 39.0698C201.174 39.4701 201.174 39.8883 201.174 40.3065C201.175 50.8242 201.168 61.3419 201.185 71.8596C201.186 72.9417 201.225 74.0423 201.417 75.1016C201.749 76.9361 202.528 77.5274 204.348 77.5425C204.84 77.5466 205.334 77.5388 205.824 77.495C206.302 77.4522 206.776 77.3565 207.354 77.2686C207.544 79.9619 207.726 82.5539 207.921 85.3279C206.882 85.5345 205.874 85.8012 204.85 85.9248C202.672 86.1879 200.489 86.1751 198.366 85.5231C195.314 84.5858 193.261 82.5744 192.342 79.2974Z" fill="white"/>
<path d="M396.107 51.0025C396.463 51.0469 396.722 51.0733 397.026 51.1046C397.026 53.922 397.026 56.7171 397.026 59.4311C395.239 59.6144 393.483 59.6696 391.781 59.9956C388.499 60.6242 386.892 62.4572 386.619 65.7096C386.503 67.0878 386.482 68.4762 386.477 69.8601C386.461 74.4905 386.471 79.1209 386.471 83.7513C386.471 84.1469 386.471 84.5426 386.471 85.0168C383.144 85.0168 379.908 85.0168 376.546 85.0168C376.546 76.5072 376.546 68.0031 376.546 59.4112C374.717 59.4112 373.01 59.4112 371.092 59.4112C371.69 58.2367 372.209 57.2109 372.734 56.1882C373.486 54.7222 374.222 53.247 375.017 51.803C375.183 51.5021 375.573 51.1181 375.864 51.1141C379.339 51.0663 382.815 51.0833 386.44 51.0833C386.44 51.8853 386.44 52.6198 386.44 53.6498C389.336 51.072 392.524 50.4675 396.107 51.0025Z" fill="white"/>
<path d="M219.575 51.9094C220.787 51.9094 221.888 51.9094 223.05 51.9094C223.05 62.9981 223.05 73.9732 223.05 85.0167C219.79 85.0167 216.556 85.0167 213.293 85.0167C213.293 76.6945 213.293 68.3665 213.293 59.9519C211.623 59.9519 209.861 59.9519 207.921 59.9519C208.106 59.5415 208.211 59.2565 208.357 58.9931C209.51 56.9188 210.7 54.8634 211.811 52.7688C212.169 52.0947 212.607 51.8753 213.368 51.8932C215.399 51.9409 217.432 51.9094 219.575 51.9094Z" fill="white"/>
<path d="M220.707 40.1384C221.544 40.1385 222.272 40.1385 223.05 40.1385C223.05 43.0525 223.05 45.8367 223.05 48.6867C219.803 48.6867 216.612 48.6867 213.324 48.6867C213.324 45.8913 213.324 43.0812 213.324 40.1384C215.754 40.1384 218.176 40.1384 220.707 40.1384Z" fill="white"/>
</svg>
